# xmcd
#
# Track frame offsets:
#	150
#	21635
#	43227
#	60441
#	83877
#	104258
#	125241
#	152571
#	180182
#	200271
#	221866
#
# Disc length: 3160 seconds
#
# Revision: 1
# Processed by: cddbd v1.5.2PL0 Copyright (c) Steve Scherf et al.
# Submitted via: audiograbber 1.83.01
#
DISCID=990c560b
DTITLE=Edo Zanki - hautnah
DYEAR=2012
DGENRE=
TTITLE0=Wenn wir Glück haben
TTITLE1=Delphine reiten
TTITLE2=First time ever I saw your face
TTITLE3=In my secret life
TTITLE4=Mann in den besten Jahren
TTITLE5=Ways of the world
TTITLE6=Don't let me be lonely
TTITLE7=Wenn ich fall'
TTITLE8=Mother an child reunion
TTITLE9=Bye Bye
TTITLE10=Bonus: weit übers Meer
EXTD=
EXTT0=
EXTT1=
EXTT2=
EXTT3=
EXTT4=
EXTT5=
EXTT6=
EXTT7=
EXTT8=
EXTT9=
EXTT10=
PLAYORDER=
